<svg xmlns="http://www.w3.org/2000/svg" viewBox="0 0 400 300" fill="none" stroke="#0f7a3a" color="#0f7a3a" stroke-width="1" stroke-linecap="square" font-family="'IBM Plex Mono', ui-monospace, monospace">
  <rect x="6" y="6" width="388" height="288" stroke-width="1" opacity="0.55"></rect>
  <rect x="14" y="14" width="372" height="272" stroke-dasharray="2 4" opacity="0.35"></rect>

  <g opacity="0.18">
    <line x1="0"   y1="40"  x2="400" y2="40"></line>
    <line x1="0"   y1="60"  x2="400" y2="60"></line>
    <line x1="0"   y1="80"  x2="400" y2="80"></line>
    <line x1="0"   y1="100" x2="400" y2="100"></line>
    <line x1="0"   y1="120" x2="400" y2="120"></line>
    <line x1="0"   y1="140" x2="400" y2="140"></line>
    <line x1="0"   y1="160" x2="400" y2="160"></line>
    <line x1="0"   y1="180" x2="400" y2="180"></line>
    <line x1="0"   y1="200" x2="400" y2="200"></line>
    <line x1="0"   y1="220" x2="400" y2="220"></line>
    <line x1="0"   y1="240" x2="400" y2="240"></line>
    <line x1="0"   y1="260" x2="400" y2="260"></line>
  </g>

  <g opacity="0.65">
    <line x1="14"  y1="14"  x2="386" y2="286"></line>
    <line x1="386" y1="14"  x2="14"  y2="286"></line>
  </g>

  <g transform="translate(200, 150)">
    <circle r="34" stroke-width="1.5"></circle>
    <circle r="22" stroke-dasharray="2 4" opacity="0.7"></circle>
    <circle r="3" fill="#0f7a3a"></circle>
  </g>

  <g font-size="9" letter-spacing="2" fill="#0f7a3a" stroke="none" opacity="0.85">
    <text x="20" y="30">IMAGE PLACEHOLDER</text>
    <text x="20" y="280">NO SIGNAL · 4:3</text>
    <text x="380" y="280" text-anchor="end">FIG.--</text>
  </g>
</svg>
